<svg width="170" height="56" viewBox="0 0 170 56" fill="none" xmlns="http://www.w3.org/2000/svg">
<path opacity="0.2" fill-rule="evenodd" clip-rule="evenodd" d="M19.8242 25.0805L18.1469 26.4263L18.6039 26.9244C18.7575 26.9999 19.4625 27.1884 19.6207 27.2491L21.7036 25.5961L19.8242 25.0805Z" fill="#1D3963"/>
<path fill-rule="evenodd" clip-rule="evenodd" d="M19.1844 22.8197C18.9106 23.1218 18.6256 23.4078 18.3314 23.677C17.5146 22.421 17.258 20.6375 17.7202 19.0329C18.0376 17.9306 18.8474 16.4839 20.0847 16.0345C21.1497 15.6471 21.9164 16.5619 22.0287 17.5269C22.251 19.4426 19.1844 22.8197 19.1844 22.8197ZM19.6589 27.2498C20.8696 27.712 22.1913 27.748 23.5729 27.3415C24.4309 27.0888 25.2672 26.6768 26.0575 26.1507C21.6136 33.4684 15 40 15 40C15 40 8.50163 33.582 4.05906 26.3424C5.36032 25.8551 6.70196 24.5416 8.06076 22.4127C8.96292 20.9993 9.83863 19.2628 10.5579 17.4885C10.5974 17.5624 10.6285 17.6208 10.6498 17.6623C10.7501 17.8612 10.8526 18.0606 10.9561 18.2614C11.7409 19.7875 12.5521 21.3657 12.7057 22.963C12.8022 23.9658 12.3961 24.2833 12.2625 24.3878C11.5798 24.9212 10.0605 24.9531 8.56846 24.4645C8.15868 24.3299 7.70714 24.4617 7.43798 24.793C7.16835 25.1251 7.13819 25.5864 7.36187 25.9495C8.44362 27.7038 10.4628 28.3973 12.4087 28.3973C13.1419 28.3973 13.8649 28.2987 14.5234 28.1212C15.7648 27.7873 16.9979 27.2033 18.1525 26.4144C18.1534 26.4154 18.1544 26.4158 18.1553 26.4163L18.1534 26.4144C18.4843 26.6631 18.8277 26.8711 19.1813 27.0436C19.3382 27.1202 19.4974 27.1882 19.6589 27.2498ZM15.0002 0C23.2844 0 30 5.17882 30 15.1833C30 16.1378 29.8626 17.1365 29.6157 18.1612C28.8352 20.9489 25.9431 24.5299 22.9823 25.4014C22.5628 25.5245 22.16 25.5889 21.7715 25.5966C21.4267 25.603 21.093 25.5665 20.7705 25.4821C20.4522 25.3986 20.1436 25.2704 19.8442 25.097C19.8354 25.092 19.8266 25.0875 19.8182 25.0829L19.8178 25.0824C20.1296 24.7932 20.4313 24.488 20.7218 24.1686L20.8011 24.081C22.4054 22.3135 24.4028 20.1144 24.0752 17.2976C23.9309 16.0552 23.2663 14.9639 22.2973 14.3781C21.4272 13.8516 20.3877 13.7653 19.3704 14.1344C17.4102 14.8471 16.2087 16.8472 15.7376 18.4815C15.0917 20.7258 15.4861 23.1772 16.7066 24.9323C15.8258 25.4985 14.9028 25.9196 13.9793 26.1678C13.6479 26.2573 13.2985 26.3193 12.9439 26.3508C13.156 26.2445 13.3574 26.1195 13.5449 25.973C14.1895 25.4689 14.9232 24.5044 14.7566 22.772C14.5659 20.7937 13.6252 18.9628 12.7945 17.3477C12.6933 17.1506 12.5926 16.9545 12.4938 16.7596C12.4576 16.688 12.3959 16.5735 12.3156 16.4252C11.9814 15.8056 11.7165 15.2823 11.5072 14.8402C11.5322 14.7718 11.561 14.6965 11.5907 14.619C11.9067 13.7913 12.4358 12.4048 11.49 11.4166C11.0714 10.979 10.4625 10.7883 9.901 10.9193C9.423 11.0306 9.0485 11.3331 8.84662 11.7715C8.53152 12.4564 8.65543 13.419 9.30559 14.9538C7.66463 19.879 4.70245 24.3994 3.00255 24.5286C1.23861 21.3266 0 18.0567 0 15.1833C0 5.17882 6.71606 0 15.0002 0Z" fill="#1D3963"/>
<path fill-rule="evenodd" clip-rule="evenodd" d="M50.36 14.94L48.52 16.88C47.98 16.12 47.02 15.76 46.04 15.76C44.88 15.76 43.72 16.28 43.72 17.58C43.72 20.42 50.44 18.8 50.44 23.84C50.44 26.88 48.04 28.36 45.26 28.36C43.5 28.36 41.78 27.82 40.62 26.44L42.52 24.6C43.14 25.54 44.2 26.08 45.32 26.08C46.48 26.08 47.8 25.44 47.8 24.14C47.8 21.04 41.08 22.82 41.08 17.76C41.08 14.84 43.68 13.48 46.3 13.48C47.78 13.48 49.26 13.9 50.36 14.94ZM52.88 28V18.4H55.28V28H52.88ZM52.54 15.14C52.54 14.38 53.18 13.7 54.06 13.7C54.94 13.7 55.62 14.32 55.62 15.14C55.62 15.96 54.94 16.58 54.06 16.58C53.18 16.58 52.54 15.9 52.54 15.14ZM57.94 28V18.4H60.22V19.9H60.26C60.68 19 61.6 18.16 63.2 18.16C64.68 18.16 65.7 18.74 66.2 19.94C66.9 18.72 67.92 18.16 69.36 18.16C71.92 18.16 72.82 19.98 72.82 22.28V28H70.42V22.56C70.42 21.36 70.06 20.32 68.64 20.32C67.14 20.32 66.58 21.56 66.58 22.8V28H64.18V22.28C64.18 21.1 63.7 20.32 62.54 20.32C60.96 20.32 60.34 21.48 60.34 22.76V28H57.94ZM75.44 32.56V18.4H77.72V19.84H77.76C78.46 18.68 79.72 18.16 81.06 18.16C84.02 18.16 85.8 20.36 85.8 23.2C85.8 26.04 83.9 28.24 81.16 28.24C79.36 28.24 78.4 27.4 77.9 26.78H77.84V32.56H75.44ZM83.4 23.2C83.4 21.7 82.34 20.32 80.58 20.32C78.82 20.32 77.76 21.7 77.76 23.2C77.76 24.7 78.82 26.08 80.58 26.08C82.34 26.08 83.4 24.7 83.4 23.2ZM88.08 28V12.88H90.48V28H88.08ZM96.04 28.08L91.94 18.4H94.58L97.26 25.06H97.3L99.7 18.4H102.2L97.66 30.06C96.96 31.86 96.12 32.8 94 32.8C93.38 32.8 92.76 32.72 92.16 32.56L92.46 30.4C92.84 30.54 93.26 30.64 93.68 30.64C94.86 30.64 95.18 30.22 95.58 29.22L96.04 28.08ZM103.84 28V13.84H113.22V16.12H106.36V19.6H112.86V21.88H106.36V25.72H113.58V28H103.84ZM115.88 28V12.88H118.28V28H115.88ZM120.56 23.2C120.56 20.18 122.88 18.16 125.78 18.16C128.68 18.16 131 20.18 131 23.2C131 26.22 128.68 28.24 125.78 28.24C122.88 28.24 120.56 26.22 120.56 23.2ZM122.96 23.2C122.96 24.7 124.02 26.08 125.78 26.08C127.54 26.08 128.6 24.7 128.6 23.2C128.6 21.7 127.54 20.32 125.78 20.32C124.02 20.32 122.96 21.7 122.96 23.2ZM133.24 32.56V18.4H135.52V19.84H135.56C136.26 18.68 137.52 18.16 138.86 18.16C141.82 18.16 143.6 20.36 143.6 23.2C143.6 26.04 141.7 28.24 138.96 28.24C137.16 28.24 136.2 27.4 135.7 26.78H135.64V32.56H133.24ZM141.2 23.2C141.2 21.7 140.14 20.32 138.38 20.32C136.62 20.32 135.56 21.7 135.56 23.2C135.56 24.7 136.62 26.08 138.38 26.08C140.14 26.08 141.2 24.7 141.2 23.2ZM155.08 24.04H147.76C147.92 25.46 149 26.32 150.34 26.32C151.54 26.32 152.32 25.76 152.92 25.02L154.64 26.32C153.52 27.7 152.1 28.24 150.58 28.24C147.68 28.24 145.36 26.22 145.36 23.2C145.36 20.18 147.68 18.16 150.58 18.16C153.26 18.16 155.08 20.04 155.08 23.38V24.04ZM147.76 22.24H152.68C152.66 20.84 151.74 19.96 150.24 19.96C148.82 19.96 147.94 20.86 147.76 22.24ZM164.92 28V26.56H164.88C164.18 27.72 162.92 28.24 161.58 28.24C158.62 28.24 156.84 26.04 156.84 23.2C156.84 20.36 158.74 18.16 161.48 18.16C163.28 18.16 164.24 19 164.74 19.62H164.8V12.88H167.2V28H164.92ZM159.24 23.2C159.24 24.7 160.3 26.08 162.06 26.08C163.82 26.08 164.88 24.7 164.88 23.2C164.88 21.7 163.82 20.32 162.06 20.32C160.3 20.32 159.24 21.7 159.24 23.2Z" fill="#7E8096"/>
<path d="M70.7088 50H76.2315V48.8665H72.0256V46.1946H75.8949V45.0653H72.0256V42.4062H76.1804V41.2727H70.7088V50ZM83.4364 43.4545H82.0685L80.4151 48.4915H80.3469L78.6893 43.4545H77.3214L79.6992 50H81.0629L83.4364 43.4545ZM87.2205 50.1321C88.6481 50.1321 89.658 49.429 89.9478 48.3636L88.7418 48.1463C88.5117 48.7642 87.9577 49.0795 87.2333 49.0795C86.1424 49.0795 85.4094 48.3722 85.3754 47.1108H90.0288V46.6591C90.0288 44.294 88.614 43.3693 87.131 43.3693C85.3072 43.3693 84.1055 44.7585 84.1055 46.7699C84.1055 48.8026 85.2901 50.1321 87.2205 50.1321ZM85.3796 46.1562C85.4308 45.2273 86.104 44.4219 87.1396 44.4219C88.1282 44.4219 88.7759 45.1548 88.7802 46.1562H85.3796ZM92.7166 46.1136C92.7166 45.0696 93.3558 44.473 94.2422 44.473C95.1072 44.473 95.6314 45.0398 95.6314 45.9901V50H96.9055V45.8366C96.9055 44.2173 96.0149 43.3693 94.6768 43.3693C93.6925 43.3693 93.049 43.8253 92.7464 44.5199H92.6655V43.4545H91.4425V50H92.7166V46.1136ZM101.67 43.4545H100.327V41.8864H99.0533V43.4545H98.0945V44.4773H99.0533V48.3423C99.049 49.5312 99.9567 50.1065 100.962 50.0852C101.367 50.081 101.64 50.0043 101.789 49.9489L101.559 48.8963C101.474 48.9134 101.316 48.9517 101.112 48.9517C100.698 48.9517 100.327 48.8153 100.327 48.0781V44.4773H101.67V43.4545ZM109.183 50C111.842 50 113.38 48.3509 113.38 45.6236C113.38 42.9091 111.842 41.2727 109.272 41.2727H106.357V50H109.183ZM107.674 48.8494V42.4233H109.191C111.1 42.4233 112.085 43.5653 112.085 45.6236C112.085 47.6903 111.1 48.8494 109.11 48.8494H107.674ZM116.82 50.1449C117.902 50.1449 118.512 49.5952 118.755 49.1051H118.806V50H120.05V45.6534C120.05 43.7486 118.55 43.3693 117.51 43.3693C116.326 43.3693 115.235 43.8466 114.809 45.0398L116.006 45.3125C116.194 44.848 116.671 44.4006 117.527 44.4006C118.35 44.4006 118.772 44.831 118.772 45.5724V45.6023C118.772 46.0668 118.294 46.0582 117.118 46.1946C115.878 46.3395 114.608 46.6634 114.608 48.1506C114.608 49.4375 115.576 50.1449 116.82 50.1449ZM117.097 49.1222C116.377 49.1222 115.857 48.7983 115.857 48.1676C115.857 47.4858 116.462 47.2429 117.199 47.1449C117.613 47.0895 118.593 46.9787 118.776 46.7955V47.6392C118.776 48.4148 118.158 49.1222 117.097 49.1222ZM126.652 45.0526C126.388 44.0341 125.591 43.3693 124.176 43.3693C122.697 43.3693 121.649 44.1491 121.649 45.3082C121.649 46.2372 122.212 46.8551 123.439 47.1278L124.547 47.3707C125.178 47.5114 125.472 47.7926 125.472 48.2017C125.472 48.7088 124.93 49.1051 124.095 49.1051C123.332 49.1051 122.842 48.777 122.689 48.1335L121.457 48.321C121.67 49.4801 122.634 50.1321 124.104 50.1321C125.685 50.1321 126.78 49.2926 126.78 48.108C126.78 47.1832 126.192 46.6122 124.99 46.3352L123.95 46.0966C123.23 45.9261 122.919 45.6832 122.923 45.2401C122.919 44.7372 123.464 44.3793 124.189 44.3793C124.982 44.3793 125.348 44.8182 125.497 45.2571L126.652 45.0526ZM129.455 46.1136C129.455 45.0696 130.115 44.473 131.023 44.473C131.901 44.473 132.425 45.0312 132.425 45.9901V50H133.699V45.8366C133.699 44.2045 132.804 43.3693 131.458 43.3693C130.439 43.3693 129.826 43.8125 129.519 44.5199H129.438V41.2727H128.181V50H129.455V46.1136ZM135.502 50H136.746V48.9815H136.853C137.083 49.3991 137.551 50.1278 138.745 50.1278C140.33 50.1278 141.48 48.858 141.48 46.7401C141.48 44.6179 140.313 43.3693 138.732 43.3693C137.517 43.3693 137.078 44.1108 136.853 44.5156H136.776V41.2727H135.502V50ZM136.75 46.7273C136.75 45.3594 137.347 44.4517 138.459 44.4517C139.614 44.4517 140.194 45.4276 140.194 46.7273C140.194 48.0398 139.597 49.0412 138.459 49.0412C137.364 49.0412 136.75 48.1037 136.75 46.7273ZM145.668 50.1321C147.513 50.1321 148.719 48.7812 148.719 46.7571C148.719 44.7202 147.513 43.3693 145.668 43.3693C143.823 43.3693 142.617 44.7202 142.617 46.7571C142.617 48.7812 143.823 50.1321 145.668 50.1321ZM145.673 49.0625C144.467 49.0625 143.904 48.0099 143.904 46.7528C143.904 45.5 144.467 44.4347 145.673 44.4347C146.87 44.4347 147.433 45.5 147.433 46.7528C147.433 48.0099 146.87 49.0625 145.673 49.0625ZM152.047 50.1449C153.129 50.1449 153.738 49.5952 153.981 49.1051H154.032V50H155.277V45.6534C155.277 43.7486 153.777 43.3693 152.737 43.3693C151.552 43.3693 150.461 43.8466 150.035 45.0398L151.233 45.3125C151.42 44.848 151.897 44.4006 152.754 44.4006C153.576 44.4006 153.998 44.831 153.998 45.5724V45.6023C153.998 46.0668 153.521 46.0582 152.345 46.1946C151.105 46.3395 149.835 46.6634 149.835 48.1506C149.835 49.4375 150.802 50.1449 152.047 50.1449ZM152.324 49.1222C151.603 49.1222 151.083 48.7983 151.083 48.1676C151.083 47.4858 151.689 47.2429 152.426 47.1449C152.839 47.0895 153.819 46.9787 154.002 46.7955V47.6392C154.002 48.4148 153.385 49.1222 152.324 49.1222ZM156.974 50H158.248V46.0028C158.248 45.1463 158.908 44.5284 159.812 44.5284C160.076 44.5284 160.374 44.5753 160.477 44.6051V43.3864C160.349 43.3693 160.097 43.3565 159.935 43.3565C159.168 43.3565 158.512 43.7912 158.273 44.4943H158.205V43.4545H156.974V50ZM163.795 50.1278C164.988 50.1278 165.457 49.3991 165.687 48.9815H165.794V50H167.038V41.2727H165.764V44.5156H165.687C165.457 44.1108 165.022 43.3693 163.804 43.3693C162.223 43.3693 161.059 44.6179 161.059 46.7401C161.059 48.858 162.206 50.1278 163.795 50.1278ZM164.076 49.0412C162.939 49.0412 162.346 48.0398 162.346 46.7273C162.346 45.4276 162.926 44.4517 164.076 44.4517C165.189 44.4517 165.785 45.3594 165.785 46.7273C165.785 48.1037 165.176 49.0412 164.076 49.0412Z" fill="#3A71C6"/>
</svg>